<?xml version="1.0" encoding="utf-8"?>
<!-- Generator: Adobe Illustrator 27.7.0, SVG Export Plug-In . SVG Version: 6.00 Build 0)  -->
<svg version="1.1" id="Layer_1" xmlns="http://www.w3.org/2000/svg" xmlns:xlink="http://www.w3.org/1999/xlink" x="0px" y="0px"
	 width="512px" height="512px" viewBox="0 0 512 512" style="enable-background:new 0 0 512 512;" xml:space="preserve">
<style type="text/css">
	.st0{fill:#001134;}
</style>
<g>
	<circle class="st0" cx="170.353" cy="387.091" r="40.213"/>
	<circle class="st0" cx="341.674" cy="387.091" r="40.213"/>
	<path class="st0" d="M395.649,139.026h-287.34l-3.04-11.34c-6.8-25.31-29.86-42.99-56.07-42.99h-22.73
		c-8.09,0-15.03,6.22-15.41,14.29c-0.39,8.62,6.46,15.71,14.99,15.71h23.15c12.67,0,23.81,8.55,27.1,20.78l46.88,174.44
		c3.52,13.1,15.4,22.21,28.97,22.21l207.73,0.01c13.57,0,25.45-9.11,28.97-22.22l35.77-133.1
		C429.739,157.756,415.389,139.026,395.649,139.026z M271.142,293.464c-0.007,8.351-6.774,15.118-15.125,15.125
		c-4.172,0-7.962-1.697-10.691-4.426c-2.744-2.744-4.426-6.52-4.434-10.699l0-42.752l-42.759-0.007
		c-8.351-0.007-15.118-6.774-15.125-15.125c0-4.172,1.704-7.955,4.434-10.684c2.744-2.744,6.512-4.434,10.691-4.441l42.759,0.007
		v-42.766c0.007-8.351,6.774-15.118,15.125-15.125c4.179,0.007,7.948,1.697,10.691,4.441c2.729,2.729,4.434,6.512,4.434,10.684
		v42.766l42.759-0.007c8.351,0.007,15.118,6.774,15.125,15.125c-0.007,4.179-1.69,7.955-4.434,10.699
		c-2.729,2.729-6.52,4.426-10.691,4.426l-42.759,0.007V293.464z"/>
</g>
</svg>
